<svg width="72" height="96" viewBox="0 0 72 96" fill="none" xmlns="http://www.w3.org/2000/svg">
<path d="M63.1283 27.9265C62.6124 26.738 61.8737 25.7475 60.9842 25.0518C60.0946 24.356 59.0847 23.9786 58.0528 23.9566H19.8374L18.1058 14.9844C17.9308 14.1183 17.5405 13.3565 16.9984 12.8231C16.4562 12.2896 15.7942 12.0159 15.1202 12.0466H9.14906C8.35724 12.0466 7.59784 12.4649 7.03794 13.2094C6.47803 13.9539 6.16348 14.9637 6.16348 16.0166C6.16348 17.0695 6.47803 18.0793 7.03794 18.8238C7.59784 19.5683 8.35724 19.9866 9.14906 19.9866H12.8512L21.0914 60.7185C21.2663 61.5846 21.6567 62.3464 22.1988 62.8798C22.7409 63.4133 23.4029 63.687 24.0769 63.6563H50.9471C51.4985 63.654 52.0386 63.4489 52.5076 63.0634C52.9766 62.678 53.3562 62.1275 53.6043 61.4728L63.397 35.4298C63.8214 34.2468 64.019 32.9425 63.9721 31.6332C63.9253 30.324 63.6354 29.0505 63.1283 27.9265V27.9265Z" fill="#231F20"/>
<path d="M22.5842 83.5061C25.0575 83.5061 27.0625 80.84 27.0625 77.5511C27.0625 74.2623 25.0575 71.5962 22.5842 71.5962C20.1108 71.5962 18.1058 74.2623 18.1058 77.5511C18.1058 80.84 20.1108 83.5061 22.5842 83.5061Z" fill="#231F20"/>
<path d="M52.4399 83.5061C54.9132 83.5061 56.9183 80.84 56.9183 77.5511C56.9183 74.2623 54.9132 71.5962 52.4399 71.5962C49.9666 71.5962 47.9615 74.2623 47.9615 77.5511C47.9615 80.84 49.9666 83.5061 52.4399 83.5061Z" fill="#231F20"/>
</svg>
